<svg width="1440" height="23" viewBox="0 0 1440 23" fill="none" xmlns="http://www.w3.org/2000/svg">
<g filter="url(#filter0_d)">
<path d="M721.759 14.0533C523.477 12.6862 368.667 10.0273 284.563 7.91789C117.398 4.53036 -214.712 -1.70779 -205.825 0.439771C-196.938 2.58733 -39.1882 7.7581 38.5757 10.075C121.428 13.0944 351.004 16.7637 721.759 14.0533C942.531 15.5754 1217.19 15.496 1508.15 11.2735C1952.58 4.82374 2166.12 6.5917 2247.6 9.26846C2263.02 9.95249 2275.47 10.6306 2285 11.2735C2279.37 10.6212 2267.37 9.91809 2247.6 9.26846C2119.24 3.57635 1784.32 -2.52386 1199.48 7.91789C1020.48 11.1137 861.144 13.0343 721.759 14.0533Z" fill="#A73A7B"/>
</g>
<defs>
<filter id="filter0_d" x="-210" y="-7.15256e-07" width="2499" height="23" filterUnits="userSpaceOnUse" color-interpolation-filters="sRGB">
<feFlood flood-opacity="0" result="BackgroundImageFix"/>
<feColorMatrix in="SourceAlpha" type="matrix" values="0 0 0 0 0 0 0 0 0 0 0 0 0 0 0 0 0 0 127 0"/>
<feOffset dy="4"/>
<feGaussianBlur stdDeviation="2"/>
<feColorMatrix type="matrix" values="0 0 0 0 0 0 0 0 0 0 0 0 0 0 0 0 0 0 0.25 0"/>
<feBlend mode="normal" in2="BackgroundImageFix" result="effect1_dropShadow"/>
<feBlend mode="normal" in="SourceGraphic" in2="effect1_dropShadow" result="shape"/>
</filter>
</defs>
</svg>
