<svg width="369" height="460" viewBox="0 0 369 460" fill="none" xmlns="http://www.w3.org/2000/svg">
<path d="M1.70001 0.320068L3.40002 22.1901L-13.3 36.4401L8.10002 41.6101L16.5 61.8601L28 43.1801L49.8 41.4301L35.6 24.7201L40.7 3.40007L20.4 11.7501L1.70001 0.320068ZM343 9.00007C338.757 9.00007 334.687 10.6858 331.686 13.6864C328.686 16.6869 327 20.7566 327 25.0001C327 29.2435 328.686 33.3132 331.686 36.3138C334.687 39.3144 338.757 41.0001 343 41.0001C347.243 41.0001 351.313 39.3144 354.314 36.3138C357.314 33.3132 359 29.2435 359 25.0001C359 20.7566 357.314 16.6869 354.314 13.6864C351.313 10.6858 347.243 9.00007 343 9.00007ZM118.8 19.5001C114.557 19.5001 110.487 21.1858 107.486 24.1864C104.486 27.1869 102.8 31.2566 102.8 35.5001C102.8 39.7435 104.486 43.8132 107.486 46.8138C110.487 49.8144 114.557 51.5001 118.8 51.5001C123.043 51.5001 127.113 49.8144 130.114 46.8138C133.114 43.8132 134.8 39.7435 134.8 35.5001C134.8 31.2566 133.114 27.1869 130.114 24.1864C127.113 21.1858 123.043 19.5001 118.8 19.5001ZM302.7 26.3401C293.5 28.0801 285 33.5201 276.8 40.6201C269.2 47.1501 262.1 55.2801 256.1 64.0701C237.3 67.0801 218.5 74.7401 205.9 85.2001C189.8 98.4001 175.5 121 167.7 144.3C160.3 147.4 153.3 151.1 147.6 155.1C132.1 166 124.1 186.9 118.2 205.1C112.3 223.4 109.4 239.4 109.4 239.4L127.2 242.6C127.2 242.6 129.9 227.6 135.3 210.7C140.8 193.8 150.1 175.4 158 169.9C159.3 169 161 168 162.5 167.1C161.9 172.8 161.9 178.5 162.8 183.9C164.6 195.3 170.8 206.2 181.8 212.1C189.6 216.3 198.4 215.3 205.8 212.3C213.2 209.2 219.8 204.1 225.5 198.1C231.2 192.1 235.9 185 238.7 177.5C241.5 170 242.5 161.5 238.9 153.6H238.8C234.9 145.2 227.4 139.8 219.4 137.5C211.4 135.2 202.8 135.3 194.2 136.6C192.7 136.8 191.3 137.3 189.8 137.6C197.2 121.8 207.8 106.9 217.3 99.0001C223.5 93.9001 233.9 89.0001 245 85.4001C243.6 89.2001 242.5 93.0001 242 96.9001C240.4 107.4 242.7 118.8 251.1 126.6C257.2 132.2 265.4 133.1 272.6 131.9C279.7 130.7 286.6 127.5 292.8 123.4C299 119.2 304.5 114 308.4 107.9C312.3 101.8 314.9 94.0001 312.4 86.2001V86.1001C309.1 76.0301 300.9 69.1101 291.8 65.8301C287.9 64.4301 283.8 63.6401 279.6 63.1701C282.5 59.9101 285.5 56.8601 288.5 54.2501C295.3 48.4101 302.2 44.7501 306.1 44.0201L302.7 26.3401ZM53.8 61.3901L38.6 70.9501L73.1 126.2L16.7 129.1L43.2 186.9L59.6 179.3L44.1 145.7L104.7 142.6L53.8 61.3901ZM270.2 80.7001C276.3 80.6001 281.7 81.3001 285.7 82.8001C291.1 84.7001 293.8 87.1001 295.2 91.6001C295.6 92.7001 295.4 94.9001 293.3 98.2001C291.1 101.6 287.2 105.4 282.8 108.4C278.3 111.4 273.3 113.5 269.6 114.1C265.8 114.8 264.1 114.1 263.3 113.4C259.8 110.2 258.8 106.2 259.8 99.5001C260.6 94.1001 263.1 87.6001 266.8 80.9001C268 80.9001 269.1 80.7001 270.2 80.7001ZM-26.01 100C-30.2534 100 -34.3231 101.686 -37.3237 104.686C-40.3243 107.687 -42.01 111.757 -42.01 116C-42.01 120.244 -40.3243 124.313 -37.3237 127.314C-34.3231 130.314 -30.2534 132 -26.01 132C-23.908 132.001 -21.8263 131.588 -19.884 130.785C-17.9416 129.982 -16.1766 128.803 -14.6898 127.317C-13.203 125.831 -12.0236 124.067 -11.2189 122.125C-10.4142 120.183 -9.99998 118.102 -9.99998 116C-9.99998 113.898 -10.4142 111.817 -11.2189 109.875C-12.0236 107.933 -13.203 106.169 -14.6898 104.683C-16.1766 103.197 -17.9416 102.019 -19.884 101.215C-21.8263 100.412 -23.908 99.9988 -26.01 100ZM330.1 137.2L315.7 153.8L293.9 152L305.3 170.8L296.8 191L318.2 186L334.8 200.3L336.7 178.4L355.4 167L335.2 158.5L330.1 137.2ZM206.6 153.7C209.5 153.8 212.2 154.2 214.3 154.8C218.6 156 220.9 157.8 222.5 161.2C223.4 163.1 223.5 166.6 221.8 171.2C220.1 175.9 216.6 181.3 212.4 185.8C208.2 190.3 203.1 193.9 198.9 195.6C194.7 197.3 192.1 197.2 190.4 196.3H190.3C184.5 193.1 181.7 188.5 180.6 181.1C179.6 174.8 180.3 166.8 182.4 158.2C187.3 156.5 192.2 155.1 196.9 154.4C200.4 153.9 203.6 153.7 206.6 153.7ZM4.20001 205.6C-2.99998 205.4 -7.49998 207.1 -10.3 209.9C-13.1 212.7 -14.8 217.2 -14.6 224.4C-14.4 231.7 -12 241.3 -7.39998 252C1.80002 273.5 19.9 299.4 44.2 323.8C68.5 348.1 94.5 366.1 116 375.3C126.6 379.9 136.2 382.3 143.5 382.5C150.8 382.8 155.2 381 158 378.2C160.8 375.4 162.6 371 162.3 363.7C162.1 356.4 159.7 346.8 155.1 336.1C145.9 314.7 127.9 288.7 103.6 264.4C79.3 240 53.3 222 31.8 212.8C21.1 208.2 11.5 205.8 4.20001 205.6ZM236.2 236.9L203.2 290.9L174.1 263L161.7 276L206.8 319.3L240.6 264.1L279.3 296.4L368.6 258.2L361.6 241.6L282.3 275.6L236.2 236.9ZM-27.57 249.6L-45.21 307.5C-3.79998 356.6 44.5 384.2 96.9 402.2L118.5 395.6C115.4 394.5 112.1 393.2 108.8 391.8C84.4 381.4 57.1 362.2 31.5 336.5C5.80002 310.8 -13.4 283.5 -23.84 259.1C-25.25 255.9 -26.49 252.7 -27.57 249.6ZM-51.39 327.8L-65.4 373.8C-36.51 400.8 -6.39999 413 25.2 424L68.6 410.8C25.4 393.2 -15.4 367.5 -51.39 327.8ZM247 329C242.757 329 238.687 330.686 235.686 333.686C232.686 336.687 231 340.757 231 345C231 349.244 232.686 353.313 235.686 356.314C238.687 359.314 242.757 361 247 361C251.243 361 255.313 359.314 258.314 356.314C261.314 353.313 263 349.244 263 345C263 340.757 261.314 336.687 258.314 333.686C255.313 330.686 251.243 329 247 329ZM-71.19 392.9L-91.48 459.5L-3.19998 432.6C-25.97 423.5 -48.98 411.9 -71.19 392.9Z" fill="white"/>
</svg>
