<svg width="425" height="512" viewBox="0 0 425 512" fill="none" xmlns="http://www.w3.org/2000/svg">
<path d="M23.3198 389.3L45.1898 387.6L59.4398 404.3L64.6098 382.9L84.8598 374.5L66.1798 363L64.4298 341.2L47.7198 355.4L26.3998 350.3L34.7498 370.6L23.3198 389.3ZM31.9998 48C31.9998 52.2434 33.6855 56.3131 36.6861 59.3137C39.6867 62.3143 43.7564 64 47.9998 64C52.2433 64 56.313 62.3143 59.3135 59.3137C62.3141 56.3131 63.9998 52.2434 63.9998 48C63.9998 43.7565 62.3141 39.6868 59.3135 36.6862C56.313 33.6857 52.2433 32 47.9998 32C43.7564 32 39.6867 33.6857 36.6861 36.6862C33.6855 39.6868 31.9998 43.7565 31.9998 48ZM42.4998 272.2C42.4998 276.443 44.1855 280.513 47.1861 283.514C50.1867 286.514 54.2564 288.2 58.4998 288.2C62.7433 288.2 66.8129 286.514 69.8135 283.514C72.8141 280.513 74.4998 276.443 74.4998 272.2C74.4998 267.957 72.8141 263.887 69.8135 260.886C66.8129 257.886 62.7433 256.2 58.4998 256.2C54.2564 256.2 50.1867 257.886 47.1861 260.886C44.1855 263.887 42.4998 267.957 42.4998 272.2ZM49.3398 88.3C51.0798 97.5 56.5198 106 63.6198 114.2C70.1498 121.8 78.2798 128.9 87.0698 134.9C90.0798 153.7 97.7398 172.5 108.2 185.1C121.4 201.2 144 215.5 167.3 223.3C170.4 230.7 174.1 237.7 178.1 243.4C189 258.9 209.9 266.9 228.1 272.8C246.4 278.7 262.4 281.6 262.4 281.6L265.6 263.8C265.6 263.8 250.6 261.1 233.7 255.7C216.8 250.2 198.4 240.9 192.9 233C192 231.7 191 230 190.1 228.5C195.8 229.1 201.5 229.1 206.9 228.2C218.3 226.4 229.2 220.2 235.1 209.2C239.3 201.4 238.3 192.6 235.3 185.2C232.2 177.8 227.1 171.2 221.1 165.5C215.1 159.8 208 155.1 200.5 152.3C193 149.5 184.5 148.5 176.6 152.1V152.2C168.2 156.1 162.8 163.6 160.5 171.6C158.2 179.6 158.3 188.2 159.6 196.8C159.8 198.3 160.3 199.7 160.6 201.2C144.8 193.8 129.9 183.2 122 173.7C116.9 167.5 112 157.1 108.4 146C112.2 147.4 116 148.5 119.9 149C130.4 150.6 141.8 148.3 149.6 139.9C155.2 133.8 156.1 125.6 154.9 118.4C153.7 111.3 150.5 104.4 146.4 98.2C142.2 92 137 86.5 130.9 82.6C124.8 78.7 117 76.1 109.2 78.6H109.1C99.0298 81.9 92.1098 90.1 88.8298 99.2C87.4298 103.1 86.6398 107.2 86.1698 111.4C82.9098 108.5 79.8598 105.5 77.2498 102.5C71.4098 95.7 67.7498 88.8 67.0198 84.9L49.3398 88.3ZM84.3898 337.2L93.9498 352.4L149.2 317.9L152.1 374.3L209.9 347.8L202.3 331.4L168.7 346.9L165.6 286.3L84.3898 337.2ZM103.7 120.8C103.6 114.7 104.3 109.3 105.8 105.3C107.7 99.9 110.1 97.2 114.6 95.8C115.7 95.4 117.9 95.6 121.2 97.7C124.6 99.9 128.4 103.8 131.4 108.2C134.4 112.7 136.5 117.7 137.1 121.4C137.8 125.2 137.1 126.9 136.4 127.7C133.2 131.2 129.2 132.2 122.5 131.2C117.1 130.4 110.6 127.9 103.9 124.2C103.9 123 103.7 121.9 103.7 120.8ZM123 417.01C123 421.253 124.686 425.323 127.686 428.324C130.687 431.324 134.756 433.01 139 433.01C143.243 433.01 147.313 431.324 150.314 428.324C153.314 425.323 155 421.253 155 417.01C155.001 414.908 154.588 412.826 153.785 410.884C152.981 408.942 151.803 407.177 150.317 405.69C148.831 404.203 147.067 403.024 145.125 402.219C143.183 401.414 141.102 401 139 401C136.898 401 134.816 401.414 132.875 402.219C130.933 403.024 129.168 404.203 127.683 405.69C126.197 407.177 125.018 408.942 124.215 410.884C123.411 412.826 122.999 414.908 123 417.01ZM160.2 60.9L176.8 75.3L175 97.1L193.8 85.7L214 94.2L209 72.8L223.3 56.2L201.4 54.3L190 35.6L181.5 55.8L160.2 60.9ZM176.7 184.4C176.8 181.5 177.2 178.8 177.8 176.7C179 172.4 180.8 170.1 184.2 168.5C186.1 167.6 189.6 167.5 194.2 169.2C198.9 170.9 204.3 174.4 208.8 178.6C213.3 182.8 216.9 187.9 218.6 192.1C220.3 196.3 220.2 198.9 219.3 200.6V200.7C216.1 206.5 211.5 209.3 204.1 210.4C197.8 211.4 189.8 210.7 181.2 208.6C179.5 203.7 178.1 198.8 177.4 194.1C176.9 190.6 176.7 187.4 176.7 184.4ZM228.6 386.8C228.4 394 230.1 398.5 232.9 401.3C235.7 404.1 240.2 405.8 247.4 405.6C254.7 405.4 264.3 403 275 398.4C296.5 389.2 322.4 371.1 346.8 346.8C371.1 322.5 389.1 296.5 398.3 275C402.9 264.4 405.3 254.8 405.5 247.5C405.8 240.2 404 235.8 401.2 233C398.4 230.2 394 228.4 386.7 228.7C379.4 228.9 369.8 231.3 359.1 235.9C337.7 245.1 311.7 263.1 287.4 287.4C263 311.7 245 337.7 235.8 359.2C231.2 369.9 228.8 379.5 228.6 386.8ZM259.9 154.8L313.9 187.8L286 216.9L299 229.3L342.3 184.2L287.1 150.4L319.4 111.7L281.2 22.4L264.6 29.4L298.6 108.7L259.9 154.8ZM272.6 418.57L330.5 436.21C379.6 394.8 407.2 346.5 425.2 294.1L418.6 272.5C417.5 275.6 416.2 278.9 414.8 282.2C404.4 306.6 385.2 333.9 359.5 359.5C333.8 385.2 306.5 404.4 282.1 414.84C278.9 416.25 275.7 417.49 272.6 418.57ZM350.8 442.39L396.8 456.4C423.8 427.51 436 397.4 447 365.8L433.8 322.4C416.2 365.6 390.5 406.4 350.8 442.39ZM352 144C352 148.243 353.686 152.313 356.686 155.314C359.687 158.314 363.756 160 368 160C372.243 160 376.313 158.314 379.314 155.314C382.314 152.313 384 148.243 384 144C384 139.757 382.314 135.687 379.314 132.686C376.313 129.686 372.243 128 368 128C363.756 128 359.687 129.686 356.686 132.686C353.686 135.687 352 139.757 352 144ZM415.9 462.19L482.5 482.48L455.6 394.2C446.5 416.97 434.9 439.98 415.9 462.19Z" fill="white"/>
</svg>
