<svg width="227" height="135" viewBox="0 0 227 135" fill="none" xmlns="http://www.w3.org/2000/svg">
<path fill-rule="evenodd" clip-rule="evenodd" d="M0 2.34061H34.4285V79.5702C34.4285 91.7921 41.1173 99.0724 46.4064 102.193C40.8069 106.354 23.6957 109.994 10.9402 101.153C3.41995 95.941 0 87.3712 0 79.3098V2.34061ZM215.165 66.4934V58.3774H225.665V29.9043H214.134C209.707 12.8097 191.499 0 169.723 0C144.637 0 124.301 16.9979 124.301 37.9648V104.458C131.448 105.298 139.962 104.354 147.207 99.3327C154.726 94.1202 158.146 85.5514 158.146 77.4899V75.0402H175.34V46.5671H158.146V37.9648H158.187C158.187 32.6402 163.351 28.3238 169.723 28.3238C176.093 28.3238 181.278 32.6402 181.278 37.9648V66.4934C181.278 87.4603 201.635 104.458 226.72 104.458V76.1344C220.35 76.1344 215.165 71.8179 215.165 66.4934ZM84.7714 29.9043V71.6916C84.7714 74.0638 82.4166 75.987 79.5109 75.987C76.6052 75.987 74.2504 74.0638 74.2504 71.6916V29.9043H40.1838V79.0503C40.1838 87.891 43.771 99.0724 60.0953 102.713C76.4369 106.357 85.9167 98.8129 85.9167 98.8129C85.0532 103.783 79.4525 107.424 70.4308 108.204C63.6046 108.794 54.8749 106.904 50.5204 105.344V131.381C61.6163 134.116 73.3525 135 84.8378 133.137C105.682 129.757 118.837 115.195 118.837 95.8223V29.9043H84.7714Z" fill="#EA0B8C"/>
</svg>
