<svg width="1000" height="1000" viewBox="0 0 1000 1000" fill="none" xmlns="http://www.w3.org/2000/svg">
<path d="M236.099 471.1C212.999 447.7 198.799 415.5 198.799 380.1C198.799 308.5 256.899 250.4 328.499 250.4C400.099 250.4 458.299 308.4 458.299 380L358.399 304L236.099 471.1Z" fill="#FDC858"/>
<path d="M328.6 215.8V229.8" stroke="#D4C0E2" stroke-width="8" stroke-miterlimit="10" stroke-linecap="round" stroke-linejoin="round"/>
<path d="M328.6 189.8V204.4" stroke="#D4C0E2" stroke-width="8" stroke-miterlimit="10" stroke-linecap="round" stroke-linejoin="round"/>
<path d="M328.6 157.7V176.8" stroke="#D4C0E2" stroke-width="8" stroke-miterlimit="10" stroke-linecap="round" stroke-linejoin="round"/>
<path d="M299.998 218.3L302.498 232" stroke="#D4C0E2" stroke-width="8" stroke-miterlimit="10" stroke-linecap="round" stroke-linejoin="round"/>
<path d="M295.498 192.7L298.098 207.1" stroke="#D4C0E2" stroke-width="8" stroke-miterlimit="10" stroke-linecap="round" stroke-linejoin="round"/>
<path d="M289.898 161.1L293.298 179.9" stroke="#D4C0E2" stroke-width="8" stroke-miterlimit="10" stroke-linecap="round" stroke-linejoin="round"/>
<path d="M272.4 225.7L277.2 238.8" stroke="#D4C0E2" stroke-width="8" stroke-miterlimit="10" stroke-linecap="round" stroke-linejoin="round"/>
<path d="M263.5 201.3L268.5 215" stroke="#D4C0E2" stroke-width="8" stroke-miterlimit="10" stroke-linecap="round" stroke-linejoin="round"/>
<path d="M252.5 171.1L259.1 189.1" stroke="#D4C0E2" stroke-width="8" stroke-miterlimit="10" stroke-linecap="round" stroke-linejoin="round"/>
<path d="M246.398 237.8L253.398 249.9" stroke="#D4C0E2" stroke-width="8" stroke-miterlimit="10" stroke-linecap="round" stroke-linejoin="round"/>
<path d="M233.498 215.3L240.798 228" stroke="#D4C0E2" stroke-width="8" stroke-miterlimit="10" stroke-linecap="round" stroke-linejoin="round"/>
<path d="M217.398 187.5L226.998 204.1" stroke="#D4C0E2" stroke-width="8" stroke-miterlimit="10" stroke-linecap="round" stroke-linejoin="round"/>
<path d="M223 254.2L232 264.9" stroke="#D4C0E2" stroke-width="8" stroke-miterlimit="10" stroke-linecap="round" stroke-linejoin="round"/>
<path d="M206.299 234.3L215.699 245.5" stroke="#D4C0E2" stroke-width="8" stroke-miterlimit="10" stroke-linecap="round" stroke-linejoin="round"/>
<path d="M185.6 209.7L198 224.4" stroke="#D4C0E2" stroke-width="8" stroke-miterlimit="10" stroke-linecap="round" stroke-linejoin="round"/>
<path d="M202.799 274.5L213.499 283.4" stroke="#D4C0E2" stroke-width="8" stroke-miterlimit="10" stroke-linecap="round" stroke-linejoin="round"/>
<path d="M182.898 257.8L193.998 267.2" stroke="#D4C0E2" stroke-width="8" stroke-miterlimit="10" stroke-linecap="round" stroke-linejoin="round"/>
<path d="M158.199 237.1L172.899 249.4" stroke="#D4C0E2" stroke-width="8" stroke-miterlimit="10" stroke-linecap="round" stroke-linejoin="round"/>
<path d="M186.301 297.9L198.401 304.9" stroke="#D4C0E2" stroke-width="8" stroke-miterlimit="10" stroke-linecap="round" stroke-linejoin="round"/>
<path d="M163.801 284.9L176.501 292.2" stroke="#D4C0E2" stroke-width="8" stroke-miterlimit="10" stroke-linecap="round" stroke-linejoin="round"/>
<path d="M136 268.8L152.6 278.4" stroke="#D4C0E2" stroke-width="8" stroke-miterlimit="10" stroke-linecap="round" stroke-linejoin="round"/>
<path d="M174.199 323.9L187.399 328.6" stroke="#D4C0E2" stroke-width="8" stroke-miterlimit="10" stroke-linecap="round" stroke-linejoin="round"/>
<path d="M149.799 315L163.599 320" stroke="#D4C0E2" stroke-width="8" stroke-miterlimit="10" stroke-linecap="round" stroke-linejoin="round"/>
<path d="M119.6 304L137.6 310.5" stroke="#D4C0E2" stroke-width="8" stroke-miterlimit="10" stroke-linecap="round" stroke-linejoin="round"/>
<path d="M166.799 351.5L180.599 353.9" stroke="#D4C0E2" stroke-width="8" stroke-miterlimit="10" stroke-linecap="round" stroke-linejoin="round"/>
<path d="M141.299 347L155.599 349.5" stroke="#D4C0E2" stroke-width="8" stroke-miterlimit="10" stroke-linecap="round" stroke-linejoin="round"/>
<path d="M109.6 341.4L128.5 344.7" stroke="#D4C0E2" stroke-width="8" stroke-miterlimit="10" stroke-linecap="round" stroke-linejoin="round"/>
<path d="M164.299 380H178.299" stroke="#D4C0E2" stroke-width="8" stroke-miterlimit="10" stroke-linecap="round" stroke-linejoin="round"/>
<path d="M138.398 380H152.998" stroke="#D4C0E2" stroke-width="8" stroke-miterlimit="10" stroke-linecap="round" stroke-linejoin="round"/>
<path d="M106.199 380H125.399" stroke="#D4C0E2" stroke-width="8" stroke-miterlimit="10" stroke-linecap="round" stroke-linejoin="round"/>
<path d="M166.799 408.5L180.599 406.1" stroke="#D4C0E2" stroke-width="8" stroke-miterlimit="10" stroke-linecap="round" stroke-linejoin="round"/>
<path d="M141.299 413L155.599 410.5" stroke="#D4C0E2" stroke-width="8" stroke-miterlimit="10" stroke-linecap="round" stroke-linejoin="round"/>
<path d="M109.6 418.6L128.5 415.3" stroke="#D4C0E2" stroke-width="8" stroke-miterlimit="10" stroke-linecap="round" stroke-linejoin="round"/>
<path d="M174.199 436.2L187.399 431.4" stroke="#D4C0E2" stroke-width="8" stroke-miterlimit="10" stroke-linecap="round" stroke-linejoin="round"/>
<path d="M149.799 445.1L163.599 440.1" stroke="#D4C0E2" stroke-width="8" stroke-miterlimit="10" stroke-linecap="round" stroke-linejoin="round"/>
<path d="M119.6 456.1L137.6 449.5" stroke="#D4C0E2" stroke-width="8" stroke-miterlimit="10" stroke-linecap="round" stroke-linejoin="round"/>
<path d="M186.301 462.1L198.401 455.1" stroke="#D4C0E2" stroke-width="8" stroke-miterlimit="10" stroke-linecap="round" stroke-linejoin="round"/>
<path d="M163.801 475.1L176.501 467.8" stroke="#D4C0E2" stroke-width="8" stroke-miterlimit="10" stroke-linecap="round" stroke-linejoin="round"/>
<path d="M136 491.2L152.6 481.6" stroke="#D4C0E2" stroke-width="8" stroke-miterlimit="10" stroke-linecap="round" stroke-linejoin="round"/>
<path d="M482.899 323.9L469.699 328.6" stroke="#D4C0E2" stroke-width="8" stroke-miterlimit="10" stroke-linecap="round" stroke-linejoin="round"/>
<path d="M507.3 315L493.5 320" stroke="#D4C0E2" stroke-width="8" stroke-miterlimit="10" stroke-linecap="round" stroke-linejoin="round"/>
<path d="M470.799 297.9L458.699 304.9" stroke="#D4C0E2" stroke-width="8" stroke-miterlimit="10" stroke-linecap="round" stroke-linejoin="round"/>
<path d="M493.3 284.9L480.6 292.2" stroke="#D4C0E2" stroke-width="8" stroke-miterlimit="10" stroke-linecap="round" stroke-linejoin="round"/>
<path d="M521.1 268.8L504.5 278.4" stroke="#D4C0E2" stroke-width="8" stroke-miterlimit="10" stroke-linecap="round" stroke-linejoin="round"/>
<path d="M454.299 274.5L443.699 283.4" stroke="#D4C0E2" stroke-width="8" stroke-miterlimit="10" stroke-linecap="round" stroke-linejoin="round"/>
<path d="M474.2 257.8L463.1 267.2" stroke="#D4C0E2" stroke-width="8" stroke-miterlimit="10" stroke-linecap="round" stroke-linejoin="round"/>
<path d="M498.899 237.1L484.199 249.4" stroke="#D4C0E2" stroke-width="8" stroke-miterlimit="10" stroke-linecap="round" stroke-linejoin="round"/>
<path d="M434.1 254.2L425.1 264.9" stroke="#D4C0E2" stroke-width="8" stroke-miterlimit="10" stroke-linecap="round" stroke-linejoin="round"/>
<path d="M450.8 234.3L441.4 245.5" stroke="#D4C0E2" stroke-width="8" stroke-miterlimit="10" stroke-linecap="round" stroke-linejoin="round"/>
<path d="M471.499 209.7L459.199 224.4" stroke="#D4C0E2" stroke-width="8" stroke-miterlimit="10" stroke-linecap="round" stroke-linejoin="round"/>
<path d="M410.699 237.8L403.699 249.9" stroke="#D4C0E2" stroke-width="8" stroke-miterlimit="10" stroke-linecap="round" stroke-linejoin="round"/>
<path d="M423.599 215.3L416.299 228" stroke="#D4C0E2" stroke-width="8" stroke-miterlimit="10" stroke-linecap="round" stroke-linejoin="round"/>
<path d="M439.7 187.5L430.1 204.1" stroke="#D4C0E2" stroke-width="8" stroke-miterlimit="10" stroke-linecap="round" stroke-linejoin="round"/>
<path d="M384.698 225.7L379.898 238.8" stroke="#D4C0E2" stroke-width="8" stroke-miterlimit="10" stroke-linecap="round" stroke-linejoin="round"/>
<path d="M393.598 201.3L388.598 215" stroke="#D4C0E2" stroke-width="8" stroke-miterlimit="10" stroke-linecap="round" stroke-linejoin="round"/>
<path d="M404.598 171.1L397.998 189.1" stroke="#D4C0E2" stroke-width="8" stroke-miterlimit="10" stroke-linecap="round" stroke-linejoin="round"/>
<path d="M357.1 218.3L354.6 232" stroke="#D4C0E2" stroke-width="8" stroke-miterlimit="10" stroke-linecap="round" stroke-linejoin="round"/>
<path d="M361.6 192.7L359 207.1" stroke="#D4C0E2" stroke-width="8" stroke-miterlimit="10" stroke-linecap="round" stroke-linejoin="round"/>
<path d="M367.199 161.1L363.799 179.9" stroke="#D4C0E2" stroke-width="8" stroke-miterlimit="10" stroke-linecap="round" stroke-linejoin="round"/>
<path d="M214.5 740.7H75.0996" stroke="#523160" stroke-width="8" stroke-miterlimit="10" stroke-linecap="round" stroke-linejoin="round"/>
<path d="M431.5 740.7H232" stroke="#523160" stroke-width="8" stroke-miterlimit="10" stroke-linecap="round" stroke-linejoin="round"/>
<path d="M792.5 740.7H774.4" stroke="#523160" stroke-width="8" stroke-miterlimit="10" stroke-linecap="round" stroke-linejoin="round"/>
<path d="M896.5 740.7H809.9" stroke="#523160" stroke-width="8" stroke-miterlimit="10" stroke-linecap="round" stroke-linejoin="round"/>
<path d="M918 740.7H911.5" stroke="#523160" stroke-width="8" stroke-miterlimit="10" stroke-linecap="round" stroke-linejoin="round"/>
<path d="M162.801 570.6L358.901 304.4L468.501 388.7" stroke="#D4C0E2" stroke-width="8" stroke-miterlimit="10" stroke-linecap="round" stroke-linejoin="round"/>
<path d="M418.4 456.7L558.5 266.5L796.3 482.5" stroke="#D4C0E2" stroke-width="8" stroke-miterlimit="10" stroke-linecap="round" stroke-linejoin="round"/>
<path d="M115.066 626.39C122.878 620.422 127.092 612.81 124.477 609.386C121.862 605.963 113.409 608.025 105.597 613.992C97.7844 619.959 93.5709 627.572 96.1858 630.996C98.8006 634.419 107.254 632.357 115.066 626.39Z" fill="#FDC858"/>
<path d="M115.023 594.705C122.835 588.737 127.049 581.125 124.434 577.701C121.819 574.278 113.366 576.34 105.554 582.307C97.7414 588.274 93.5279 595.887 96.1428 599.31C98.7576 602.734 107.211 600.672 115.023 594.705Z" fill="#FDC858"/>
<path d="M115.052 703.294C122.865 697.326 127.078 689.714 124.463 686.29C121.849 682.867 113.396 684.929 105.583 690.896C97.7707 696.864 93.5572 704.476 96.1721 707.9C98.7869 711.323 107.24 709.261 115.052 703.294Z" fill="#FDC858"/>
<path d="M115.066 663.789C122.878 657.822 127.092 650.209 124.477 646.786C121.862 643.363 113.409 645.425 105.597 651.392C97.7844 657.359 93.5709 664.972 96.1858 668.395C98.8006 671.819 107.254 669.756 115.066 663.789Z" fill="#FDC858"/>
<path d="M115.066 626.39C122.878 620.422 127.092 612.81 124.477 609.386C121.862 605.963 113.409 608.025 105.597 613.992C97.7844 619.959 93.5709 627.572 96.1858 630.996C98.8006 634.419 107.254 632.357 115.066 626.39Z" stroke="#523160" stroke-width="8" stroke-miterlimit="10" stroke-linecap="round" stroke-linejoin="round"/>
<path d="M115.023 594.705C122.835 588.737 127.049 581.125 124.434 577.701C121.819 574.278 113.366 576.34 105.554 582.307C97.7414 588.274 93.5279 595.887 96.1428 599.31C98.7576 602.734 107.211 600.672 115.023 594.705Z" stroke="#523160" stroke-width="8" stroke-miterlimit="10" stroke-linecap="round" stroke-linejoin="round"/>
<path d="M115.052 703.294C122.865 697.326 127.078 689.714 124.463 686.29C121.849 682.867 113.396 684.929 105.583 690.896C97.7707 696.864 93.5572 704.476 96.1721 707.9C98.7869 711.323 107.24 709.261 115.052 703.294Z" stroke="#523160" stroke-width="8" stroke-miterlimit="10" stroke-linecap="round" stroke-linejoin="round"/>
<path d="M115.066 663.789C122.878 657.822 127.092 650.209 124.477 646.786C121.862 643.363 113.409 645.425 105.597 651.392C97.7844 657.359 93.5709 664.972 96.1858 668.395C98.8006 671.819 107.254 669.756 115.066 663.789Z" stroke="#523160" stroke-width="8" stroke-miterlimit="10" stroke-linecap="round" stroke-linejoin="round"/>
<path d="M96.0924 599.437C98.7072 596.014 94.4937 588.401 86.6813 582.434C78.8688 576.467 70.4159 574.405 67.801 577.828C65.1862 581.252 69.3996 588.864 77.2121 594.831C85.0245 600.799 93.4775 602.861 96.0924 599.437Z" fill="#FDC858"/>
<path d="M96.0435 692.062C98.6583 688.639 94.4449 681.026 86.6324 675.059C78.82 669.092 70.367 667.03 67.7522 670.453C65.1373 673.877 69.3508 681.489 77.1632 687.456C84.9757 693.424 93.4286 695.486 96.0435 692.062Z" fill="#FDC858"/>
<path d="M96.067 652.45C98.6818 649.027 94.4683 641.414 86.6559 635.447C78.8434 629.48 70.3905 627.418 67.7756 630.841C65.1608 634.265 69.3742 641.877 77.1867 647.844C84.9991 653.812 93.4521 655.874 96.067 652.45Z" fill="#FDC858"/>
<path d="M96.0924 599.437C98.7072 596.014 94.4937 588.401 86.6813 582.434C78.8688 576.467 70.4159 574.405 67.801 577.828C65.1862 581.252 69.3996 588.864 77.2121 594.831C85.0245 600.799 93.4775 602.861 96.0924 599.437Z" stroke="#523160" stroke-width="8" stroke-miterlimit="10" stroke-linecap="round" stroke-linejoin="round"/>
<path d="M96.0435 692.062C98.6583 688.639 94.4449 681.026 86.6324 675.059C78.82 669.092 70.367 667.03 67.7522 670.453C65.1373 673.877 69.3508 681.489 77.1632 687.456C84.9757 693.424 93.4286 695.486 96.0435 692.062Z" stroke="#523160" stroke-width="8" stroke-miterlimit="10" stroke-linecap="round" stroke-linejoin="round"/>
<path d="M96.067 652.45C98.6818 649.027 94.4683 641.414 86.6559 635.447C78.8434 629.48 70.3905 627.418 67.7756 630.841C65.1608 634.265 69.3742 641.877 77.1867 647.844C84.9991 653.812 93.4521 655.874 96.067 652.45Z" stroke="#523160" stroke-width="8" stroke-miterlimit="10" stroke-linecap="round" stroke-linejoin="round"/>
<path d="M96.0996 593.5V738.8" stroke="#523160" stroke-width="8" stroke-miterlimit="10" stroke-linecap="round" stroke-linejoin="round"/>
<path d="M198.074 710.976C205.886 705.009 210.1 697.397 207.485 693.973C204.87 690.55 196.417 692.612 188.605 698.579C180.792 704.546 176.579 712.159 179.194 715.582C181.808 719.006 190.261 716.944 198.074 710.976Z" stroke="#523160" stroke-width="8" stroke-miterlimit="10" stroke-linecap="round" stroke-linejoin="round"/>
<path d="M198.074 677.777C205.886 671.81 210.1 664.197 207.485 660.774C204.87 657.35 196.417 659.412 188.605 665.379C180.792 671.347 176.579 678.959 179.194 682.383C181.808 685.806 190.261 683.744 198.074 677.777Z" stroke="#523160" stroke-width="8" stroke-miterlimit="10" stroke-linecap="round" stroke-linejoin="round"/>
<path d="M198.05 647.785C205.863 641.817 210.076 634.205 207.461 630.781C204.847 627.358 196.394 629.42 188.581 635.387C180.769 641.355 176.555 648.967 179.17 652.391C181.785 655.814 190.238 653.752 198.05 647.785Z" stroke="#523160" stroke-width="8" stroke-miterlimit="10" stroke-linecap="round" stroke-linejoin="round"/>
<path d="M179.04 692.054C181.654 688.631 177.441 681.018 169.629 675.051C161.816 669.084 153.363 667.021 150.748 670.445C148.133 673.868 152.347 681.481 160.159 687.448C167.972 693.415 176.425 695.478 179.04 692.054Z" stroke="#523160" stroke-width="8" stroke-miterlimit="10" stroke-linecap="round" stroke-linejoin="round"/>
<path d="M179.063 652.442C181.678 649.019 177.464 641.406 169.652 635.439C161.84 629.472 153.387 627.41 150.772 630.833C148.157 634.257 152.37 641.869 160.183 647.836C167.995 653.804 176.448 655.866 179.063 652.442Z" stroke="#523160" stroke-width="8" stroke-miterlimit="10" stroke-linecap="round" stroke-linejoin="round"/>
<path d="M179.1 648.3V738.8" stroke="#523160" stroke-width="8" stroke-miterlimit="10" stroke-linecap="round" stroke-linejoin="round"/>
<path d="M295.5 390.9L305.3 403.5L329 394.1L359.7 405.9L372.4 394.1L396.4 402L409.4 382.2L439.9 394.4L451.9 375.9" stroke="#D4C0E2" stroke-width="8" stroke-miterlimit="10" stroke-linecap="round" stroke-linejoin="round"/>
<path d="M496.5 350.6L526.9 343.6L538 364.1L569.5 347.1L592.5 361.6L607.4 339.6L646 346" stroke="#D4C0E2" stroke-width="8" stroke-miterlimit="10" stroke-linecap="round" stroke-linejoin="round"/>
<path d="M624.301 275.8H766.701C767.501 273.9 768.001 271.7 768.001 269.5C768.001 260.6 760.701 253.3 751.801 253.3C750.001 253.3 748.301 253.6 746.801 254.1C743.101 244 733.301 236.8 721.901 236.8C718.901 236.8 716.001 237.3 713.301 238.2C707.601 225.6 694.801 216.8 680.101 216.8C659.901 216.8 643.601 233.1 643.601 253.3C643.601 255.3 643.801 257.3 644.101 259.3C634.901 261 627.501 267.3 624.301 275.8Z" stroke="#D4C0E2" stroke-width="8" stroke-miterlimit="10" stroke-linecap="round" stroke-linejoin="round"/>
<path d="M871.4 340.9C871.4 340.8 871.4 340.7 871.4 340.6C871.4 331 863.6 323.3 854.1 323.3C852.3 323.3 850.6 323.6 849 324.1C849 323.6 849 323.1 849 322.6C849 307.4 836.7 295.1 821.5 295.1C806.3 295.1 794 307.4 794 322.6C794 324.2 794.1 325.7 794.4 327.2C794.3 327.2 794.1 327.2 794 327.2C786.6 327.2 780.5 333.2 780.5 340.7C780.5 340.8 780.5 340.9 780.5 341.1H871.4V340.9Z" stroke="#D4C0E2" stroke-width="8" stroke-miterlimit="10" stroke-linecap="round" stroke-linejoin="round"/>
<path d="M340.9 740.7C315.6 740.7 295 720.1 295 694.8C295 669.5 315.6 648.9 340.9 648.9C366.2 648.9 386.8 669.5 386.8 694.8C386.8 720.1 366.2 740.7 340.9 740.7Z" fill="#5C3F6B"/>
<path d="M340.9 740.7C315.6 740.7 295 720.1 295 694.8C295 669.5 315.6 648.9 340.9 648.9C366.2 648.9 386.8 669.5 386.8 694.8C386.8 720.1 366.2 740.7 340.9 740.7Z" stroke="#523160" stroke-width="8" stroke-miterlimit="10" stroke-linecap="round" stroke-linejoin="round"/>
<path d="M340.9 718.8C327.7 718.8 316.9 708 316.9 694.8C316.9 681.6 327.7 670.8 340.9 670.8C354.1 670.8 364.9 681.6 364.9 694.8C364.9 708 354.1 718.8 340.9 718.8Z" fill="#FDC858"/>
<path d="M340.9 718.8C327.7 718.8 316.9 708 316.9 694.8C316.9 681.6 327.7 670.8 340.9 670.8C354.1 670.8 364.9 681.6 364.9 694.8C364.9 708 354.1 718.8 340.9 718.8Z" stroke="#523160" stroke-width="8" stroke-miterlimit="10" stroke-linecap="round" stroke-linejoin="round"/>
<path d="M340.9 702.7C336.5 702.7 333 699.1 333 694.8C333 690.4 336.6 686.9 340.9 686.9C345.3 686.9 348.8 690.5 348.8 694.8C348.8 699.1 345.3 702.7 340.9 702.7Z" fill="#FDC858"/>
<path d="M340.9 702.7C336.5 702.7 333 699.1 333 694.8C333 690.4 336.6 686.9 340.9 686.9C345.3 686.9 348.8 690.5 348.8 694.8C348.8 699.1 345.3 702.7 340.9 702.7Z" stroke="#523160" stroke-width="8" stroke-miterlimit="10" stroke-linecap="round" stroke-linejoin="round"/>
<path d="M707.9 555.1L698.5 519.4C694.8 505.1 682.6 494.7 667.9 493.1C625.9 488.6 575 486 515.6 486C447.6 486 343.1 491.2 311.7 494.8C306 495.4 301.1 499.1 298.8 504.4L279.9 548.6C271.2 564.2 265.9 581.4 264.4 599.2L264 698.6L285.1 699C285 697.6 284.9 696.2 284.9 694.8C284.9 663.9 309.9 638.9 340.8 638.9C371.7 638.9 396.7 663.9 396.7 694.8C396.7 696.6 396.6 698.4 396.4 700.1L543.4 701.9C543.1 699.6 542.9 697.2 542.9 694.8C542.9 663.9 567.9 638.9 598.8 638.9C629.7 638.9 654.7 663.9 654.7 694.8C654.7 697.6 654.5 700.3 654.1 703L713.4 703.6V600C713.7 584.9 711.7 569.8 707.9 555.1Z" fill="#8E63AD"/>
<g opacity="0.36">
<path opacity="0.36" d="M275.2 698.6L275.6 599.2C277.1 581.4 282.4 564.2 291.1 548.6L310 504.4C312.3 499.1 317.2 495.5 322.9 494.8C353.4 491.3 452.7 486.3 520.7 486C519 486 517.3 486 515.6 486C447.6 486 343.1 491.2 311.7 494.8C306 495.4 301.1 499.1 298.8 504.4L279.9 548.6C271.2 564.2 265.9 581.4 264.4 599.2L264 698.6L285.1 699C285.1 698.9 285.1 698.9 285.1 698.8L275.2 698.6Z" fill="#8E63AD"/>
<path opacity="0.36" d="M665.5 703C665.9 700.3 666.1 697.6 666.1 694.8C666.1 663.9 641.1 638.9 610.2 638.9C608.3 638.9 606.5 639 604.6 639.2C632.9 642 654.9 665.8 654.9 694.8C654.9 697.6 654.7 700.3 654.3 703L713.6 703.6V703.5L665.5 703Z" fill="#8E63AD"/>
<path opacity="0.36" d="M407.7 700C407.9 698.3 408 696.5 408 694.7C408 663.8 383 638.8 352.1 638.8C350.2 638.8 348.4 638.9 346.5 639.1C374.8 641.9 396.8 665.7 396.8 694.7C396.8 696.5 396.7 698.3 396.5 700L543.5 701.8V701.7L407.7 700Z" fill="#8E63AD"/>
</g>
<path opacity="0.36" d="M407.901 691H541.501V677.7H405.301C406.701 682 407.501 686.4 407.901 691Z" fill="#8E63AD"/>
<g opacity="0.25">
<path opacity="0.25" d="M709.9 554.1L700.5 518.4C696.8 504.1 684.6 493.7 669.9 492.1C627.9 487.6 577 485 517.6 485C449.6 485 345.1 490.2 313.7 493.8C308.8 494.4 304.4 497.2 301.9 501.4C301.9 501.4 301.9 499.7 302 499.7C333.4 496.1 437.9 492.6 505.9 492.6C565.4 492.6 616.2 495.2 658.2 499.7C672.9 501.3 685 511.7 688.8 526L698.2 561.7C702.1 576.4 704 591.5 704 606.6V702.5L715.8 702.6V599C715.7 583.9 713.7 568.8 709.9 554.1Z" fill="#8E63AD"/>
</g>
<path d="M707.9 555.1L698.5 519.4C694.8 505.1 682.6 494.7 667.9 493.1C625.9 488.6 575 486 515.6 486C447.6 486 343.1 491.2 311.7 494.8C306 495.4 301.1 499.1 298.8 504.4L279.9 548.6C271.2 564.2 265.9 581.4 264.4 599.2L264 698.6L285.1 699C285 697.6 284.9 696.2 284.9 694.8C284.9 663.9 309.9 638.9 340.8 638.9C371.7 638.9 396.7 663.9 396.7 694.8C396.7 696.6 396.6 698.4 396.4 700.1L543.4 701.9C543.1 699.6 542.9 697.2 542.9 694.8C542.9 663.9 567.9 638.9 598.8 638.9C629.7 638.9 654.7 663.9 654.7 694.8C654.7 697.6 654.5 700.3 654.1 703L713.4 703.6V600C713.7 584.9 711.7 569.8 707.9 555.1Z" stroke="#523160" stroke-width="8" stroke-miterlimit="10" stroke-linecap="round" stroke-linejoin="round"/>
<path d="M599 740.7C573.7 740.7 553.1 720.1 553.1 694.8C553.1 669.5 573.7 648.9 599 648.9C624.3 648.9 644.9 669.5 644.9 694.8C644.9 720.1 624.3 740.7 599 740.7Z" fill="#5C3F6B"/>
<path d="M599 740.7C573.7 740.7 553.1 720.1 553.1 694.8C553.1 669.5 573.7 648.9 599 648.9C624.3 648.9 644.9 669.5 644.9 694.8C644.9 720.1 624.3 740.7 599 740.7Z" stroke="#523160" stroke-width="8" stroke-miterlimit="10" stroke-linecap="round" stroke-linejoin="round"/>
<path d="M599 718.8C585.8 718.8 575 708 575 694.8C575 681.6 585.8 670.8 599 670.8C612.2 670.8 623 681.6 623 694.8C623 708 612.2 718.8 599 718.8Z" fill="#FDC858"/>
<path d="M599 718.8C585.8 718.8 575 708 575 694.8C575 681.6 585.8 670.8 599 670.8C612.2 670.8 623 681.6 623 694.8C623 708 612.2 718.8 599 718.8Z" stroke="#523160" stroke-width="8" stroke-miterlimit="10" stroke-linecap="round" stroke-linejoin="round"/>
<path d="M599 702.7C594.6 702.7 591.1 699.1 591.1 694.8C591.1 690.4 594.7 686.9 599 686.9C603.4 686.9 606.9 690.5 606.9 694.8C606.9 699.1 603.4 702.7 599 702.7Z" fill="#FDC858"/>
<path d="M599 702.7C594.6 702.7 591.1 699.1 591.1 694.8C591.1 690.4 594.7 686.9 599 686.9C603.4 686.9 606.9 690.5 606.9 694.8C606.9 699.1 603.4 702.7 599 702.7Z" stroke="#523160" stroke-width="8" stroke-miterlimit="10" stroke-linecap="round" stroke-linejoin="round"/>
<path d="M264 707.5H253.1C248.6 707.5 245 703.9 245 699.4V667.1C245 662.6 248.6 659 253.1 659H264V707.5Z" fill="white"/>
<path d="M264 707.5H253.1C248.6 707.5 245 703.9 245 699.4V667.1C245 662.6 248.6 659 253.1 659H264V707.5Z" stroke="#523160" stroke-width="8" stroke-miterlimit="10" stroke-linecap="round" stroke-linejoin="round"/>
<path d="M265.599 646H261.599C258.599 646 256.199 643.6 256.199 640.6V615.8C256.199 612.8 258.599 610.4 261.599 610.4H265.599C268.599 610.4 270.999 612.8 270.999 615.8V640.6C270.999 643.6 268.599 646 265.599 646Z" fill="white"/>
<path d="M265.599 646H261.599C258.599 646 256.199 643.6 256.199 640.6V615.8C256.199 612.8 258.599 610.4 261.599 610.4H265.599C268.599 610.4 270.999 612.8 270.999 615.8V640.6C270.999 643.6 268.599 646 265.599 646Z" stroke="#523160" stroke-width="8" stroke-miterlimit="10" stroke-linecap="round" stroke-linejoin="round"/>
<path d="M721.301 715.2H678.301C673.301 715.2 669.301 711.2 669.301 706.2V699.2C669.301 694.2 673.301 690.2 678.301 690.2H721.301C726.301 690.2 730.301 694.2 730.301 699.2V706.2C730.301 711.1 726.201 715.2 721.301 715.2Z" fill="white"/>
<path d="M678.899 705.5C678.899 703 680.999 700.9 683.499 700.9H730.199V699.2C730.199 694.2 726.199 690.2 721.199 690.2H678.199C673.199 690.2 669.199 694.2 669.199 699.2V706.2C669.199 711.2 673.199 715.2 678.199 715.2H678.899V705.5Z" fill="#D8D8D8"/>
<path d="M721.301 715.2H678.301C673.301 715.2 669.301 711.2 669.301 706.2V699.2C669.301 694.2 673.301 690.2 678.301 690.2H721.301C726.301 690.2 730.301 694.2 730.301 699.2V706.2C730.301 711.1 726.201 715.2 721.301 715.2Z" stroke="#523160" stroke-width="8" stroke-miterlimit="10" stroke-linecap="round" stroke-linejoin="round"/>
<path d="M648.5 578.3H602.2C596.9 578.3 592.6 574 592.6 568.7V522C592.6 516.7 596.9 512.4 602.2 512.4H630.3C641.4 512.4 650.8 520.5 652.5 531.5L657.9 567.2C658.9 573.1 654.4 578.3 648.5 578.3Z" fill="#FDC858"/>
<path opacity="0.56" d="M612.2 533.5C612.2 528.2 616.5 523.9 621.8 523.9H649.9C646 517 638.6 512.5 630.3 512.5H602.2C596.9 512.5 592.6 516.8 592.6 522.1V568.8C592.6 574.1 596.9 578.4 602.2 578.4H612.2V533.5Z" fill="#FDC858"/>
<path d="M648.5 578.3H602.2C596.9 578.3 592.6 574 592.6 568.7V522C592.6 516.7 596.9 512.4 602.2 512.4H630.3C641.4 512.4 650.8 520.5 652.5 531.5L657.9 567.2C658.9 573.1 654.4 578.3 648.5 578.3Z" stroke="#523160" stroke-width="8" stroke-miterlimit="10" stroke-linecap="round" stroke-linejoin="round"/>
<path d="M561.8 577.3H459.6C454.3 577.3 450 573 450 567.7V521C450 515.7 454.3 511.4 459.6 511.4H561.8C567.1 511.4 571.4 515.7 571.4 521V567.7C571.3 573 567.1 577.3 561.8 577.3Z" fill="#FDC858"/>
<path opacity="0.56" d="M468.5 531.3C468.5 526 472.8 521.7 478.1 521.7H571.3V521C571.3 515.7 567 511.4 561.7 511.4H459.6C454.3 511.4 450 515.7 450 521V567.7C450 573 454.3 577.3 459.6 577.3H468.6V531.3H468.5Z" fill="#FDC858"/>
<path d="M561.8 577.3H459.6C454.3 577.3 450 573 450 567.7V521C450 515.7 454.3 511.4 459.6 511.4H561.8C567.1 511.4 571.4 515.7 571.4 521V567.7C571.3 573 567.1 577.3 561.8 577.3Z" stroke="#523160" stroke-width="8" stroke-miterlimit="10" stroke-linecap="round" stroke-linejoin="round"/>
<path d="M403.5 578.3H307.2C301.8 578.3 297.9 572.3 299.4 566.2L310.5 519.5C311.5 515.4 314.7 512.5 318.3 512.5H403.5C408 512.5 411.6 516.8 411.6 522.1V568.8C411.7 574 408 578.3 403.5 578.3Z" fill="#FDC858"/>
<path opacity="0.56" d="M317.4 576L328.5 529.3C329.5 525.2 332.7 522.3 336.3 522.3H411.6V522C411.6 516.7 408 512.4 403.5 512.4H318.3C314.7 512.4 311.5 515.3 310.5 519.4L299.4 566.1C298 572.2 301.8 578.2 307.2 578.2H317.1C317.2 577.5 317.3 576.8 317.4 576Z" fill="#FDC858"/>
<path d="M403.5 578.3H307.2C301.8 578.3 297.9 572.3 299.4 566.2L310.5 519.5C311.5 515.4 314.7 512.5 318.3 512.5H403.5C408 512.5 411.6 516.8 411.6 522.1V568.8C411.7 574 408 578.3 403.5 578.3Z" stroke="#523160" stroke-width="8" stroke-miterlimit="10" stroke-linecap="round" stroke-linejoin="round"/>
<path opacity="0.48" d="M413.4 490.7C424.8 490.7 434 499.9 434 511.3V700.5" stroke="#523160" stroke-width="2" stroke-miterlimit="10" stroke-linecap="round" stroke-linejoin="round"/>
<path d="M386.801 602.3H416.801" stroke="#523160" stroke-width="8" stroke-miterlimit="10" stroke-linecap="round" stroke-linejoin="round"/>
<path d="M542.5 600H568.1" stroke="#523160" stroke-width="8" stroke-miterlimit="10" stroke-linecap="round" stroke-linejoin="round"/>
<path d="M716.3 669.5H712.4V574H716.3C722.9 574 728.3 579.4 728.3 586V657.5C728.3 664.1 722.9 669.5 716.3 669.5Z" fill="#D8D8D8"/>
<path d="M716.3 669.5H712.4V574H716.3C722.9 574 728.3 579.4 728.3 586V657.5C728.3 664.1 722.9 669.5 716.3 669.5Z" stroke="#523160" stroke-width="8" stroke-miterlimit="10" stroke-linecap="round" stroke-linejoin="round"/>
<path d="M669.301 522.5H681.401" stroke="#523160" stroke-width="8" stroke-miterlimit="10" stroke-linecap="round" stroke-linejoin="round"/>
<path d="M674.301 539.7H686.401" stroke="#523160" stroke-width="8" stroke-miterlimit="10" stroke-linecap="round" stroke-linejoin="round"/>
<path d="M679 556.8H691.1" stroke="#523160" stroke-width="8" stroke-miterlimit="10" stroke-linecap="round" stroke-linejoin="round"/>
<path d="M681 574H693.2" stroke="#523160" stroke-width="8" stroke-miterlimit="10" stroke-linecap="round" stroke-linejoin="round"/>
<path d="M534.801 706.7H405.501C400.101 706.7 395.801 702.4 395.801 697C395.801 691.6 400.101 687.3 405.501 687.3H534.801C540.201 687.3 544.501 691.6 544.501 697C544.501 702.3 540.201 706.7 534.801 706.7Z" fill="white"/>
<path d="M534.801 706.7H405.501C400.101 706.7 395.801 702.4 395.801 697C395.801 691.6 400.101 687.3 405.501 687.3H534.801C540.201 687.3 544.501 691.6 544.501 697C544.501 702.3 540.201 706.7 534.801 706.7Z" fill="white"/>
<path d="M544.501 687.3H395.801V697H544.501V687.3Z" fill="#D8D8D8"/>
<path d="M534.801 706.7H405.501C400.101 706.7 395.801 702.4 395.801 697C395.801 691.6 400.101 687.3 405.501 687.3H534.801C540.201 687.3 544.501 691.6 544.501 697C544.501 702.3 540.201 706.7 534.801 706.7Z" stroke="#523160" stroke-width="8" stroke-miterlimit="10" stroke-linecap="round" stroke-linejoin="round"/>
<path d="M326.199 553.5L345.799 533.8" stroke="#523160" stroke-width="4" stroke-miterlimit="10" stroke-linecap="round" stroke-linejoin="round"/>
<path d="M342.801 555.3L369.201 528.7" stroke="#523160" stroke-width="4" stroke-miterlimit="10" stroke-linecap="round" stroke-linejoin="round"/>
<path d="M478.5 551.2L498 531.4" stroke="#523160" stroke-width="4" stroke-miterlimit="10" stroke-linecap="round" stroke-linejoin="round"/>
<path d="M495.1 553L521.5 526.4" stroke="#523160" stroke-width="4" stroke-miterlimit="10" stroke-linecap="round" stroke-linejoin="round"/>
<path d="M605.301 553.1L621.401 536.8" stroke="#523160" stroke-width="4" stroke-miterlimit="10" stroke-linecap="round" stroke-linejoin="round"/>
<path d="M619 554.6L640.7 532.6" stroke="#523160" stroke-width="4" stroke-miterlimit="10" stroke-linecap="round" stroke-linejoin="round"/>
<path d="M769.7 605.9L852.3 410.3C854.1 406.1 860.1 406.1 861.9 410.3L944.5 605.9C954.4 629.3 933.3 653.8 903.3 653.8H810.9C780.9 653.8 759.8 629.3 769.7 605.9Z" fill="#FDC858"/>
<path d="M769.7 605.9L852.3 410.3C854.1 406.1 860.1 406.1 861.9 410.3L944.5 605.9C954.4 629.3 933.3 653.8 903.3 653.8H810.9C780.9 653.8 759.8 629.3 769.7 605.9Z" fill="#FDC858"/>
<path opacity="0.56" d="M810.1 615.1L869 427L862 410.3C860.2 406.1 854.2 406.1 852.4 410.3L769.8 605.9C759.9 629.3 781 653.8 811 653.8H818C809.2 646.4 805.8 634.1 810.1 615.1Z" fill="#FDC858"/>
<path d="M857.1 740.7V446.3" stroke="#523160" stroke-width="8" stroke-miterlimit="10" stroke-linecap="round" stroke-linejoin="round"/>
<path d="M880.9 487.3L857.1 510L833.4 487.3" stroke="#523160" stroke-width="8" stroke-miterlimit="10" stroke-linecap="round" stroke-linejoin="round"/>
<path d="M885.401 530.5L857.101 557.6L828.801 530.5" stroke="#523160" stroke-width="8" stroke-miterlimit="10" stroke-linecap="round" stroke-linejoin="round"/>
<path d="M904.3 579.7L857.1 617.2L809.9 579.7" stroke="#523160" stroke-width="8" stroke-miterlimit="10" stroke-linecap="round" stroke-linejoin="round"/>
<path d="M592 151.7L580 163.7L568 151.7" stroke="#D4C0E2" stroke-width="8" stroke-miterlimit="10" stroke-linecap="round" stroke-linejoin="round"/>
<path d="M681.299 167.3L669.299 179.3L657.199 167.3" stroke="#D4C0E2" stroke-width="8" stroke-miterlimit="10" stroke-linecap="round" stroke-linejoin="round"/>
<path d="M871.5 231.8L859.4 243.8L847.4 231.8" stroke="#D4C0E2" stroke-width="8" stroke-miterlimit="10" stroke-linecap="round" stroke-linejoin="round"/>
<path d="M755 740.7H477" stroke="#523160" stroke-width="8" stroke-miterlimit="10" stroke-linecap="round" stroke-linejoin="round"/>
<path d="M480.7 740.7H447" stroke="#523160" stroke-width="8" stroke-miterlimit="10" stroke-linecap="round" stroke-linejoin="round"/>
</svg>
